<svg xmlns="http://www.w3.org/2000/svg" xmlns:xlink="http://www.w3.org/1999/xlink" version="1.1" x="0px" y="0px" viewBox="0 0 100 125" enable-background="new 0 0 100 100" xml:space="preserve"><g><path fill="none" d="M89.623,6.621H37.988c-1.271,0-2.304,1.033-2.304,2.304v26.93l1.352-1.473   c0.617-0.718,1.487-1.087,2.363-1.087c0.386,0,0.77,0.078,1.136,0.222l13.093-14.768c0.424-0.475,1.15-0.52,1.627-0.097   c0.476,0.422,0.521,1.151,0.097,1.627L42.21,35.1c0.493,1.067,0.363,2.367-0.452,3.319l-4.474,5.179   c0.223,0.073,0.457,0.122,0.704,0.122h51.635c1.271,0,2.305-1.034,2.305-2.304V8.925C91.928,7.654,90.894,6.621,89.623,6.621z    M80.664,36.691c-1.394,0-2.523-1.129-2.523-2.523c0-0.42,0.104-0.815,0.285-1.163l-4.608-4.29   c-0.552,0.395-1.225,0.628-1.953,0.628c-0.665,0-1.283-0.195-1.805-0.528l-2.624,2.713c0.163,0.307,0.257,0.657,0.257,1.029   c0,1.208-0.979,2.187-2.187,2.187s-2.187-0.979-2.187-2.187c0-1.208,0.979-2.188,2.187-2.188c0.346,0,0.67,0.083,0.961,0.225   l2.623-2.714c-0.372-0.541-0.591-1.196-0.591-1.902c0-0.15,0.014-0.297,0.033-0.441l-4.48-1.551   c-0.429,0.595-1.123,0.983-1.91,0.983c-1.301,0-2.355-1.055-2.355-2.356c0-1.3,1.055-2.354,2.355-2.354s2.354,1.055,2.354,2.354   c0,0.035-0.003,0.068-0.005,0.102l4.48,1.55c0.478-0.803,1.274-1.392,2.22-1.583v-4.765c-0.879-0.285-1.514-1.107-1.514-2.081   c0-1.208,0.979-2.188,2.187-2.188s2.188,0.98,2.188,2.188c0,0.974-0.637,1.796-1.515,2.081v4.765   c0.762,0.155,1.431,0.567,1.91,1.143l3.948-2.125c-0.009-0.074-0.016-0.148-0.016-0.225c0-1.021,0.829-1.85,1.851-1.85   c1.022,0,1.851,0.829,1.851,1.85c0,1.022-0.828,1.851-1.851,1.851c-0.456,0-0.874-0.166-1.196-0.441l-3.948,2.125   c0.092,0.307,0.144,0.632,0.144,0.97c0,0.642-0.184,1.24-0.495,1.75l4.61,4.292c0.384-0.237,0.835-0.375,1.319-0.375   c1.395,0,2.523,1.129,2.523,2.523C83.188,35.562,82.059,36.691,80.664,36.691z"/><path d="M89.623,3.548H37.988c-2.965,0-5.376,2.412-5.376,5.377v30.277l-4.4,4.794v-0.001c0-0.831-0.075-1.308-0.243-1.554   c-0.462-0.678-1.629,0.382-3.876,0.563c-0.204,0.017-0.417,0.025-0.641,0.025h-0.322c-1.175,0-2.087-0.255-2.791-0.48   c-0.95-0.305-1.506-0.54-1.773-0.014c-0.133,0.265-0.198,0.713-0.198,1.459l-1.925,1.56L5.746,58.248   c-1.116,1.304-0.961,3.265,0.342,4.38c0.586,0.499,1.304,0.743,2.018,0.743c0.876,0,1.747-0.368,2.363-1.087l5.15-6.202   l-0.872,12.465h2.223v0.221l-2.268,24.289c-0.159,1.708,1.097,3.223,2.805,3.383c0.098,0.008,0.195,0.013,0.291,0.013   c1.586,0,2.939-1.208,3.089-2.816l2.197-23.514h0.411l2.195,23.514c0.152,1.608,1.506,2.816,3.089,2.816   c0.097,0,0.195-0.005,0.294-0.013c1.707-0.16,2.961-1.675,2.804-3.383l-2.27-24.29v-0.22h2.223l-0.923-12.541l-0.351-4.771   l0.087,0.052l4.561-5.28c0.813,0.495,1.764,0.786,2.784,0.786h51.635c2.965,0,5.377-2.412,5.377-5.377V8.925   C95,5.96,92.588,3.548,89.623,3.548z M91.928,41.415c0,1.271-1.034,2.304-2.305,2.304H37.988c-0.247,0-0.48-0.049-0.704-0.122   l4.474-5.179c0.815-0.952,0.945-2.252,0.452-3.319l13.141-14.822c0.424-0.476,0.379-1.205-0.097-1.627   c-0.477-0.422-1.203-0.377-1.627,0.097L40.535,33.516c-0.366-0.144-0.75-0.222-1.136-0.222c-0.876,0-1.746,0.369-2.363,1.087   l-1.352,1.473V8.925c0-1.271,1.034-2.304,2.304-2.304h51.635c1.271,0,2.305,1.033,2.305,2.304V41.415z"/><path d="M23.289,40.954c0.015,0,0.027-0.002,0.042-0.002c0.014,0,0.027,0.002,0.041,0.002c3.764,0,6.817-3.051,6.817-6.815   c0-3.766-3.053-6.816-6.817-6.816c-0.013,0-0.027,0.001-0.041,0.002c-0.015-0.001-0.027-0.002-0.042-0.002   c-3.764,0-6.817,3.051-6.817,6.815C16.472,37.903,19.525,40.954,23.289,40.954z"/><path d="M80.664,31.645c-0.484,0-0.936,0.139-1.319,0.375l-4.61-4.292c0.312-0.51,0.495-1.108,0.495-1.75   c0-0.338-0.052-0.663-0.144-0.97l3.948-2.125c0.322,0.275,0.74,0.441,1.196,0.441c1.022,0,1.851-0.828,1.851-1.851   c0-1.021-0.828-1.85-1.851-1.85c-1.021,0-1.851,0.829-1.851,1.85c0,0.077,0.007,0.151,0.016,0.225l-3.948,2.125   c-0.479-0.575-1.148-0.988-1.91-1.143v-4.765c0.878-0.285,1.515-1.107,1.515-2.081c0-1.208-0.979-2.188-2.188-2.188   s-2.187,0.98-2.187,2.188c0,0.974,0.635,1.796,1.514,2.081v4.765c-0.945,0.191-1.742,0.781-2.22,1.583l-4.48-1.55   c0.002-0.034,0.005-0.067,0.005-0.102c0-1.3-1.054-2.354-2.354-2.354s-2.355,1.055-2.355,2.354c0,1.302,1.055,2.356,2.355,2.356   c0.787,0,1.481-0.388,1.91-0.983l4.48,1.551c-0.02,0.144-0.033,0.291-0.033,0.441c0,0.706,0.219,1.361,0.591,1.902l-2.623,2.714   c-0.291-0.143-0.615-0.225-0.961-0.225c-1.208,0-2.187,0.979-2.187,2.188c0,1.208,0.979,2.187,2.187,2.187s2.187-0.979,2.187-2.187   c0-0.372-0.094-0.722-0.257-1.029l2.624-2.713c0.521,0.333,1.14,0.528,1.805,0.528c0.729,0,1.401-0.234,1.953-0.628l4.608,4.29   c-0.182,0.348-0.285,0.743-0.285,1.163c0,1.394,1.13,2.523,2.523,2.523c1.395,0,2.523-1.129,2.523-2.523   C83.188,32.774,82.059,31.645,80.664,31.645z"/></g><text x="0" y="115" fill="#000000" font-size="5px" font-weight="bold" font-family="'Helvetica Neue', Helvetica, Arial-Unicode, Arial, Sans-serif">Created by TukTuk Design</text><text x="0" y="120" fill="#000000" font-size="5px" font-weight="bold" font-family="'Helvetica Neue', Helvetica, Arial-Unicode, Arial, Sans-serif">from the Noun Project</text></svg>