<svg xmlns:dc="http://purl.org/dc/elements/1.1/" xmlns:cc="http://creativecommons.org/ns#" xmlns:rdf="http://www.w3.org/1999/02/22-rdf-syntax-ns#" xmlns:svg="http://www.w3.org/2000/svg" xmlns="http://www.w3.org/2000/svg" xmlns:sodipodi="http://sodipodi.sourceforge.net/DTD/sodipodi-0.dtd" xmlns:inkscape="http://www.inkscape.org/namespaces/inkscape" version="1.1" x="0px" y="0px" viewBox="0 0 100 125"><g transform="translate(0,-952.36218)"><path style="font-size:medium;font-style:normal;font-variant:normal;font-weight:normal;font-stretch:normal;text-indent:0;text-align:start;text-decoration:none;line-height:normal;letter-spacing:normal;word-spacing:normal;text-transform:none;direction:ltr;block-progression:tb;writing-mode:lr-tb;text-anchor:start;baseline-shift:baseline;opacity:1;color:#000000;fill:#000000;fill-opacity:1;stroke:none;stroke-width:1.94444454000000010;marker:none;visibility:visible;display:inline;overflow:visible;enable-background:accumulate;font-family:Sans;-inkscape-font-specification:Sans" d="M 41 7 C 37.139297 7 34 10.1393 34 14 L 28 14 A 1.0001 1.0001 0 0 0 27 15 L 27 18 L 16 18 A 1.0001 1.0001 0 0 0 15.8125 18 A 1.0001 1.0001 0 0 0 15 19 L 15 82 A 1.0001 1.0001 0 0 0 16 83 L 49.28125 83 C 52.490277 88.954835 58.769112 93 66 93 C 76.481565 93 85 84.4815 85 74 C 85 63.856746 77.013745 55.589815 67 55.0625 L 67 19 A 1.0001 1.0001 0 0 0 66 18 L 55 18 L 55 15 A 1.0001 1.0001 0 0 0 54 14 L 48 14 C 48 10.1393 44.860703 7 41 7 z M 41 9 C 43.787297 9 46 11.2127 46 14 L 46 15 A 1.0001 1.0001 0 0 0 47 16 L 53 16 L 53 22 L 29 22 L 29 16 L 35 16 A 1.0001 1.0001 0 0 0 36 15 L 36 14 C 36 11.2127 38.212703 9 41 9 z M 17 20 L 27 20 L 27 23 A 1.0001 1.0001 0 0 0 28 24 L 54 24 A 1.0001 1.0001 0 0 0 55 23 L 55 20 L 65 20 L 65 29 L 17 29 L 17 20 z M 17 31 L 65 31 L 65 55.0625 C 57.808325 55.441208 51.70185 59.821746 48.8125 66.03125 C 48.810561 66.035416 48.783186 66.027082 48.78125 66.03125 A 1.0001 1.0001 0 0 0 48.53125 66 L 38 66 A 1.0001 1.0001 0 0 0 37.8125 66 A 1.0043849 1.0043849 0 0 0 38 68 L 48 68 C 47.364695 69.897405 47 71.892398 47 74 C 47 76.467819 47.485182 78.835683 48.34375 81 L 17 81 L 17 31 z M 31.96875 39.96875 A 1.0001 1.0001 0 0 0 31.28125 40.28125 L 27 44.5625 L 25.71875 43.28125 A 1.0054782 1.0054782 0 1 0 24.28125 44.6875 L 26.28125 46.6875 A 1.0001 1.0001 0 0 0 27.71875 46.6875 L 32.71875 41.6875 A 1.0001 1.0001 0 0 0 31.96875 39.96875 z M 37.8125 44 A 1.0043849 1.0043849 0 0 0 38 46 L 57 46 A 1.0001 1.0001 0 1 0 57 44 L 38 44 A 1.0001 1.0001 0 0 0 37.8125 44 z M 31.96875 50.96875 A 1.0001 1.0001 0 0 0 31.28125 51.28125 L 27 55.5625 L 25.71875 54.28125 A 1.0054956 1.0054956 0 1 0 24.28125 55.6875 L 26.28125 57.6875 A 1.0001 1.0001 0 0 0 27.71875 57.6875 L 32.71875 52.6875 A 1.0001 1.0001 0 0 0 31.96875 50.96875 z M 37.8125 55 A 1.0043849 1.0043849 0 0 0 38 57 L 57 57 A 1.0001 1.0001 0 1 0 57 55 L 38 55 A 1.0001 1.0001 0 0 0 37.8125 55 z M 66 57 C 75.400691 57 83 64.5993 83 74 C 83 83.4007 75.400691 91 66 91 C 56.59931 91 49 83.4007 49 74 C 49 64.5993 56.59931 57 66 57 z M 31.96875 61.96875 A 1.0001 1.0001 0 0 0 31.28125 62.28125 L 27 66.5625 L 25.71875 65.28125 A 1.0054956 1.0054956 0 1 0 24.28125 66.6875 L 26.28125 68.6875 A 1.0001 1.0001 0 0 0 27.71875 68.6875 L 32.71875 63.6875 A 1.0001 1.0001 0 0 0 31.96875 61.96875 z M 72.96875 66.96875 A 1.0001 1.0001 0 0 0 72.28125 67.28125 L 63 76.5625 L 59.71875 73.28125 A 1.0054956 1.0054956 0 0 0 58.28125 74.6875 L 62.28125 78.6875 A 1.0001 1.0001 0 0 0 63.71875 78.6875 L 73.71875 68.6875 A 1.0001 1.0001 0 0 0 72.96875 66.96875 z " transform="translate(0,952.36218)"/></g><text x="0" y="115" fill="#000000" font-size="5px" font-weight="bold" font-family="'Helvetica Neue', Helvetica, Arial-Unicode, Arial, Sans-serif">Created by joeartcon</text><text x="0" y="120" fill="#000000" font-size="5px" font-weight="bold" font-family="'Helvetica Neue', Helvetica, Arial-Unicode, Arial, Sans-serif">from the Noun Project</text></svg>