<svg xmlns:dc="http://purl.org/dc/elements/1.1/" xmlns:cc="http://creativecommons.org/ns#" xmlns:rdf="http://www.w3.org/1999/02/22-rdf-syntax-ns#" xmlns:svg="http://www.w3.org/2000/svg" xmlns="http://www.w3.org/2000/svg" xmlns:sodipodi="http://sodipodi.sourceforge.net/DTD/sodipodi-0.dtd" xmlns:inkscape="http://www.inkscape.org/namespaces/inkscape" version="1.1" x="0px" y="0px" viewBox="0 0 100 125"><g transform="translate(0,-952.36218)"><path style="text-indent:0;text-transform:none;direction:ltr;block-progression:tb;baseline-shift:baseline;color:#000000;enable-background:accumulate;" d="m 50,967.36228 c -6.651401,0 -13.332701,2.52023 -18.4062,7.59375 -4.1108,4.11079 -6.5008,9.27887 -7.2813,14.625 -10.322901,1.32156 -18.3125005,10.10733 -18.3125005,20.78127 0,11.586 9.4138995,21 21.0000005,21 l 11,0 a 1.0001,1.0001 0 1 0 0,-2 l -11,0 c -10.5051,0 -19.0000005,-8.4949 -19.0000005,-19 0,-9.9188 7.5688005,-18.05858 17.2500005,-18.93753 a 1.0001,1.0001 0 0 0 0.906199,-0.875 c 0.602,-5.18543 2.8943,-10.20671 6.875,-14.1875 4.689701,-4.68949 10.824,-7 16.968801,-7 6.1448,0 12.2466,2.30903 16.9375,7 5.4226,5.42264 7.721,12.81475 6.875,19.875 a 1.0001,1.0001 0 0 0 1,1.125 l 1.1875,0 c 8.881301,0 16,7.11873 16,16.00003 0,8.8813 -7.1187,16 -16,16 l -14,0 a 1.0001,1.0001 0 1 0 0,2 l 14,0 c 9.954701,0 18,-8.0453 18,-18 0,-9.9547 -8.045299,-18.00003 -18,-18.00003 l -0.1875,0 C 76.376599,988.05096 73.9611,980.54209 68.375,974.95603 63.3031,969.884 56.651399,967.36228 50,967.36228 z m -0.094,32 c -0.236,0.0204 -0.4408,0.12725 -0.5937,0.25 l -11,10.00002 c -0.3882,0.3591 -0.4242,1.0515 -0.062,1.4375 0.3614,0.386 1.0537,0.3946 1.4375,0.031 l 9.3122,-8.4687 0,33.75 c 0,0.5523 0.4477,1 1,1 0.5524,0 1,-0.4477 1,-1 l 0,-33.75 9.3125,8.4687 c 0.3838,0.3637 1.076,0.3551 1.4375,-0.031 0.3614,-0.386 0.3488,-1.0238 -0.062,-1.4375 l -11,-9.99997 c -0.2782,-0.20455 -0.5452,-0.27045 -0.7813,-0.25 z" fill="#000000" fill-opacity="1" stroke="none" marker="none" visibility="visible" display="inline" overflow="visible"/></g><text x="0" y="115" fill="#000000" font-size="5px" font-weight="bold" font-family="'Helvetica Neue', Helvetica, Arial-Unicode, Arial, Sans-serif">Created by Kimmi Studio</text><text x="0" y="120" fill="#000000" font-size="5px" font-weight="bold" font-family="'Helvetica Neue', Helvetica, Arial-Unicode, Arial, Sans-serif">from the Noun Project</text></svg>