<svg xmlns="http://www.w3.org/2000/svg" xmlns:xlink="http://www.w3.org/1999/xlink" version="1.1" x="0px" y="0px" viewBox="0 0 48 60" enable-background="new 0 0 48 48" xml:space="preserve"><g><path fill="#000000" d="M24,27c9.6,0,17.4-3.6,17.4-8.1c0-0.1,0-0.2,0-0.3h0v-3.7c0-0.4-0.5-0.7-0.8-0.4c-3.7,3-10.1,4.6-16.6,4.6   c-6.4,0-12.9-1.6-16.6-4.6c-0.3-0.3-0.8,0-0.8,0.4v3.7h0c0,0.1,0,0.2,0,0.3C6.6,23.3,14.4,27,24,27z"/><ellipse fill="#000000" cx="24" cy="8.6" rx="17.4" ry="8.1"/><path fill="#000000" d="M46.1,42.7H32.6c-0.2,0-0.5-0.2-0.5-0.4v-0.8c0-0.5-0.4-0.9-0.9-0.9h-5.3c-0.3,0-0.5-0.2-0.5-0.5l0-2.1   c0-0.3,0.2-0.5,0.5-0.5c8.7-0.4,15.5-3.9,15.5-8c0-0.1,0-0.2,0-0.3h0v-3.7c0-0.4-0.5-0.7-0.9-0.4c-3.7,3-10.1,4.6-16.5,4.6   c-6.4,0-12.8-1.6-16.5-4.6c-0.3-0.3-0.9,0-0.9,0.4v3.7h0c0,0.1,0,0.2,0,0.3c0,4.2,6.8,7.6,15.5,8c0.3,0,0.5,0.2,0.5,0.5l0,2.1   c0,0.3-0.2,0.5-0.5,0.5h-5.3c-0.5,0-0.9,0.4-0.9,0.9v0.8c0,0.2-0.2,0.4-0.5,0.4H1.9c-0.8,0-1.4,0.6-1.4,1.4s0.6,1.4,1.4,1.4h13.5   c0.2,0,0.5,0.2,0.5,0.4v0.8c0,0.5,0.4,0.9,0.9,0.9h14.5c0.5,0,0.9-0.4,0.9-0.9v-0.8c0-0.2,0.2-0.4,0.5-0.4h13.5   c0.8,0,1.4-0.6,1.4-1.4S46.9,42.7,46.1,42.7z"/></g><text x="0" y="63" fill="#000000" font-size="5px" font-weight="bold" font-family="'Helvetica Neue', Helvetica, Arial-Unicode, Arial, Sans-serif">Created by Creative Stall</text><text x="0" y="68" fill="#000000" font-size="5px" font-weight="bold" font-family="'Helvetica Neue', Helvetica, Arial-Unicode, Arial, Sans-serif">from the Noun Project</text></svg>