<svg xmlns="http://www.w3.org/2000/svg" xmlns:xlink="http://www.w3.org/1999/xlink" version="1.1" x="0px" y="0px" viewBox="0 0 100 125" enable-background="new 0 0 100 100" xml:space="preserve"><path d="M91.329,22.491c-1.073-0.534-2.417-0.803-2.417-0.803c-0.475-0.104-1.55-0.261-2.323-0.261  c-5.649,0-11.607,5.012-14.827,12.473c-1.858,4.307-2.531,8.844-1.896,12.778c0.646,3.996,2.571,7.144,5.423,8.593l-2.966,6.578  c-0.623,0.182-1.235,0.427-1.805,0.804l-11.403,7.549c0,0-16.35-24.615-16.391-24.671c-1.925-3.451-8.056-6.879-13.947-5.225  C14.909,44.54,2.682,70.528,1.218,85.883l42.048,0.012l0.775-10.261L31.836,57.017c-0.353-0.538-0.203-1.259,0.335-1.612  c0.537-0.354,1.257-0.201,1.611,0.335l18.25,27.585c1.283,1.685,3.236,2.602,5.235,2.602c1.25,0,2.512-0.355,3.632-1.098  l16.896-11.185c3.035-2.009,3.867-6.099,1.856-9.134c-0.792-1.197-1.913-2.036-3.159-2.509l2.287-5.07  c1.039,0.336,2.105,0.506,3.182,0.506c2.303,0,4.646-0.766,6.861-2.271c3.197-2.174,6.026-5.847,7.966-10.342  C100.862,35.38,98.284,25.957,91.329,22.491z M90.956,42.182c-2.618,6.07-7.575,10.474-11.786,10.474  c-0.756,0-1.472-0.144-2.133-0.429c-2.025-0.872-3.412-3.031-3.906-6.079c-0.536-3.319,0.057-7.203,1.667-10.939  c2.62-6.069,7.578-10.475,11.791-10.475c0.753,0,1.47,0.144,2.126,0.426C93.094,27.051,94.12,34.846,90.956,42.182z"/><g><path d="M44.542,42.213c6.637,3.933,15.214,1.734,19.144-4.901c3.936-6.644,1.738-15.219-4.898-19.151   c-6.649-3.938-15.218-1.739-19.154,4.905C35.701,29.702,37.893,38.276,44.542,42.213z"/><path d="M82.688,32.412c1.217-1.181,2.465-1.683,3.422-1.377c0.559,0.176,1.031,0.62,1.401,1.319c0.27,0.504,0.893,0.698,1.4,0.428   c0.506-0.268,0.696-0.895,0.429-1.4c-0.626-1.179-1.527-1.981-2.605-2.322c-1.733-0.551-3.682,0.112-5.489,1.865   c-1.641,1.593-3.014,3.944-3.865,6.621c-0.522,1.651-0.821,3.358-0.864,4.936c-0.016,0.572,0.436,1.047,1.008,1.063   c0.009,0,0.019,0,0.027,0c0.56,0,1.019-0.445,1.034-1.008c0.038-1.387,0.303-2.896,0.77-4.365   C80.104,35.816,81.287,33.771,82.688,32.412z"/></g><text x="0" y="115" fill="#000000" font-size="5px" font-weight="bold" font-family="'Helvetica Neue', Helvetica, Arial-Unicode, Arial, Sans-serif">Created by Luis Prado</text><text x="0" y="120" fill="#000000" font-size="5px" font-weight="bold" font-family="'Helvetica Neue', Helvetica, Arial-Unicode, Arial, Sans-serif">from the Noun Project</text></svg>