<svg xmlns="http://www.w3.org/2000/svg" xmlns:xlink="http://www.w3.org/1999/xlink" version="1.1" x="0px" y="0px" viewBox="0 0 66 82.5" enable-background="new 0 0 66 66" xml:space="preserve"><g><path d="M8.986,39.088c0.552,0.052,1.136,0.086,1.744,0.111c-0.014,0.126-0.042,0.241-0.05,0.374   C10.058,51.267,9.97,52.75,11.118,54.688c1.739,2.933,5.574,3.132,7.402,0.835c1.331-1.667,1.12-2.772,1.599-15.351   c0.015-0.39,0.018-0.8,0.007-1.214c0.691-0.038,1.387-0.073,2.088-0.105c0.091,0.121,0.229,0.205,0.393,0.205   c0.179,0,0.328-0.099,0.417-0.24c1.047-0.04,2.097-0.064,3.138-0.052c11.785,0.12,15.07,4.882,16.689,5.941   c0.009,0.44,0.021,0.879,0.038,1.319c0.138,4.124,3.114,3.927,4.241,2.159c0.923-1.456,1.507-10.559,1.621-12.267   c2.986-0.457,5.603-4.226,4.679-7.903c-0.538-2.145-2.244-3.909-4.27-4.621c-0.007-3.646-0.122-7.356-0.351-11.037   c-0.294-4.597-3.765-3.879-4.892-1.946c-0.536,0.916-0.623,1.986-0.64,2.939c-0.378,0.253-0.748,0.514-1.115,0.777   C26.174,25.662,8.319,13.21,2.35,23.142c-1.825,3.026-1.808,10.391-0.148,12.854C3.392,37.764,5.611,38.775,8.986,39.088z    M2.716,34.884l1.089-1.088l0.67,0.67c0.098,0.098,0.256,0.098,0.354,0c0.098-0.098,0.098-0.256,0-0.354l-0.67-0.67l1.993-1.993   c0.098-0.098,0.098-0.256,0-0.353c-0.098-0.098-0.256-0.098-0.353,0l-1.993,1.993l-0.906-0.906c-0.098-0.098-0.256-0.098-0.353,0   c-0.098,0.098-0.098,0.256,0,0.354l0.906,0.906l-0.945,0.945c-0.346-0.968-0.434-2.079-0.46-3.29   c0.143-0.043,0.725-0.661,0.83-0.766l1.146,1.146c0.098,0.098,0.256,0.098,0.354,0c0.098-0.098,0.098-0.256,0-0.354L3.23,29.977   l1.429-1.429c0.001-0.001,0.004-0.001,0.005-0.002s0.001-0.004,0.002-0.005l0.028-0.028c0.098-0.098,0.098-0.256,0-0.354   c-0.03-0.03-0.071-0.033-0.108-0.045l-1.139-1.139l1.617-1.617c0.098-0.098,0.098-0.256,0-0.353c-0.098-0.098-0.256-0.098-0.353,0   l-1.618,1.617l-0.736-0.736c0.176-0.785,0.437-1.545,0.85-2.229c0.067-0.111,0.151-0.213,0.225-0.32l0.484,0.483l-0.504,0.504   c-0.098,0.098-0.098,0.256,0,0.353c0.098,0.098,0.256,0.098,0.353,0l0.504-0.504l1.735,1.734c0.098,0.098,0.256,0.098,0.353,0   c0.098-0.098,0.098-0.256,0-0.354l-1.735-1.734l1.75-1.75l1.754,1.753c0.098,0.098,0.256,0.098,0.353,0   c0.098-0.098,0.098-0.256,0-0.353l-1.753-1.753l0.278-0.278c0.098-0.098,0.098-0.256,0-0.354c-0.098-0.098-0.256-0.098-0.354,0   l-0.278,0.278L6.078,21.07c0.333-0.175,0.684-0.331,1.051-0.47l1.241,1.241l-0.318,0.318c-0.098,0.098-0.098,0.256,0,0.354   c0.098,0.098,0.256,0.098,0.353,0l0.318-0.318l0.784,0.784c0.098,0.098,0.256,0.098,0.353,0c0.098-0.098,0.098-0.256,0-0.354   l-0.784-0.784l1.719-1.719l0.946,0.946l-0.906,0.906c-0.098,0.098-0.098,0.256,0,0.354c0.098,0.098,0.256,0.098,0.353,0   l0.906-0.906l0.845,0.845c0.098,0.098,0.256,0.098,0.354,0c0.098-0.098,0.098-0.256,0-0.353l-0.845-0.845l0.667-0.667l2.279,2.279   c0.098,0.098,0.256,0.098,0.354,0c0.098-0.098,0.098-0.256,0-0.354l-0.485-0.485l1.379-1.379l1.618,1.618   c0.098,0.098,0.256,0.098,0.354,0c0.09-0.09,0.087-0.227,0.012-0.325c0.039-0.011,0.081-0.016,0.112-0.046l0.813-0.814l1.218,1.218   c0.098,0.098,0.256,0.098,0.353,0c0.098-0.098,0.098-0.256,0-0.354l-1.218-1.218c0.098-0.098,0.057-0.049,0.126-0.149   c0.705,0.036,1.397,0.059,2.077,0.069V37.86c-3.738,0.169-7.386,0.482-10.794,0.363h0c-1-0.067-0.774,0.006-2.235-0.131   C6.539,37.857,3.817,37.161,2.716,34.884z M2.061,28.27c0.157-0.013,0.92-0.828,1.033-0.94l1.039,1.039l-1.256,1.256l-0.838-0.837   C2.043,28.616,2.053,28.442,2.061,28.27z M2.103,27.613c0.031-0.379,0.077-0.758,0.139-1.134l0.498,0.498L2.103,27.613z    M2.032,29.486l0.491,0.491l-0.487,0.487C2.033,30.149,2.031,29.82,2.032,29.486z M16.285,20.104l0.005,0.005l-1.379,1.379   l-1.625-1.625C14.242,19.912,15.66,20.034,16.285,20.104z M19.12,40.135c-0.469,12.316-0.269,13.37-1.382,14.765   c-1.419,1.78-4.409,1.556-5.76-0.722c-0.974-1.643-0.918-2.958-0.299-14.552c0.008-0.136,0.019-0.267,0.035-0.392   c2.415,0.057,4.99-0.079,7.421-0.221C19.144,39.392,19.134,39.772,19.12,40.135z M29.236,37.925l0.109-0.109l0.136,0.136   C29.398,37.944,29.32,37.932,29.236,37.925z M31.545,38.204l0.176-0.175l0.256,0.257C31.831,38.26,31.692,38.227,31.545,38.204z    M36.099,39.335c0.064,0,0.128-0.024,0.177-0.073c0.049-0.049,0.073-0.114,0.073-0.178l1.564-1.564l0.855,0.855l-1.435,1.435   c0,0,0,0.001,0,0.001c-0.4-0.17-0.818-0.323-1.239-0.472l0.005-0.005L36.099,39.335z M40.69,37.159l0.601,0.601L40.81,38.24   c-0.098,0.098-0.098,0.256,0,0.354c0.098,0.098,0.256,0.098,0.354,0l0.481-0.481l0.55,0.55c0.098,0.098,0.256,0.098,0.354,0   c0.098-0.098,0.098-0.256,0-0.354l-0.55-0.55l0.816-0.816c-0.002,0.131-0.002,0.263-0.003,0.394   c-0.012,1.081-0.022,1.981-0.019,3.169c-0.057,0.005-0.114,0.022-0.157,0.065l-0.481,0.481l-0.94-0.94l0.77-0.77   c0.098-0.098,0.098-0.256,0-0.354c-0.098-0.098-0.256-0.098-0.354,0l-0.77,0.77l-1.385-1.385L40.69,37.159z M42.806,41.707   l-0.3-0.3l0.293-0.293C42.799,41.114,42.804,41.453,42.806,41.707z M41.201,42.052c-0.362-0.279-0.749-0.535-1.14-0.787   l0.798-0.799l0.94,0.94l-0.566,0.566C41.212,41.994,41.213,42.025,41.201,42.052z M40.506,40.113l-0.872,0.872   c-0.576-0.346-1.179-0.666-1.813-0.957l1.3-1.3L40.506,40.113z M35.578,39.146c-0.558-0.181-1.143-0.336-1.738-0.481l0.743-0.743   l1.11,1.11L35.578,39.146z M41.547,42.342c0.012-0.009,0.029-0.006,0.04-0.017l0.565-0.566l0.362,0.362   c0.103,0.103,0.195,0.081,0.295,0.024c0.005,0.432,0.002,0.864,0.011,1.296C41.821,42.563,42.916,43.461,41.547,42.342z    M52.461,28.26c0.567,2.259-0.496,4.893-2.474,6.126c0,0-0.001,0-0.002,0.001c-0.391,0.246-0.784,0.417-1.162,0.506   c0.217-3.529,0.33-7.537,0.342-10.422C50.775,25.173,52.052,26.631,52.461,28.26z M44.781,10.916c0.584-1,2.794-2.184,3.03,1.506   c1.053,16.907-0.677,33.89-1.525,35.229c-0.636,1-2.295,1.422-2.398-1.659c-0.206-5.372,0.34-31.362,0.381-32.363   C44.278,12.685,44.323,11.699,44.781,10.916z M43.266,14.568c0.027,5.049-0.12,9.274-0.294,15.234L42.873,29.9l-0.565-0.565   c-0.098-0.098-0.256-0.098-0.354,0c-0.098,0.098-0.098,0.256,0,0.354l0.565,0.565l-0.608,0.608c-0.098,0.098-0.098,0.256,0,0.354   c0.098,0.098,0.256,0.098,0.354,0l0.608-0.608l0.072,0.072c-0.01,0.359-0.021,0.715-0.03,1.075c0,0.013-0.001,0.026-0.001,0.04   c-0.096-0.059-0.219-0.062-0.302,0.021l-0.545,0.544l-0.565-0.565c-0.098-0.098-0.256-0.098-0.354,0   c-0.098,0.098-0.098,0.256,0,0.354l0.565,0.565l-0.184,0.184c-0.098,0.098-0.098,0.256,0,0.354c0.098,0.098,0.256,0.098,0.354,0   l0.184-0.184l0.233,0.233c0.098,0.098,0.256,0.098,0.354,0c0.098-0.098,0.098-0.256,0-0.354l-0.233-0.233l0.483-0.482   c0,0-0.034,1.534-0.034,1.536c-0.155,0.017-0.819,0.73-0.929,0.841l-0.48-0.48c-0.098-0.098-0.256-0.098-0.353,0   c-0.098,0.098-0.098,0.256,0,0.354l0.48,0.48l-0.226,0.226c-0.098,0.098-0.098,0.256,0,0.354c0.098,0.098,0.256,0.098,0.354,0   l0.226-0.226l0.422,0.421c0.098,0.098,0.256,0.098,0.354,0c0.098-0.098,0.098-0.256,0-0.354l-0.421-0.421l0.561-0.561   c-0.017,0.798-0.023,0.985-0.036,1.832l-1.175,1.175l-0.695-0.695c-0.011-0.041-0.016-0.084-0.048-0.117   c-0.032-0.032-0.076-0.037-0.117-0.048l-0.044-0.044c-0.098-0.098-0.256-0.098-0.354,0c-0.078,0.078-0.076,0.189-0.029,0.283   l-1.236,1.236l-0.855-0.855l0.347-0.347c0.098-0.098,0.098-0.256,0-0.354c-0.098-0.098-0.256-0.098-0.354,0l-0.347,0.347   l-0.014-0.014c-0.098-0.098-0.256-0.098-0.354,0c-0.098,0.098-0.098,0.256,0,0.354l0.014,0.014l-1.513,1.512l-1.11-1.11   l1.321-1.321c0.098-0.098,0.098-0.256,0-0.354c-0.098-0.098-0.256-0.098-0.354,0l-1.321,1.321l-0.078-0.078   c-0.098-0.098-0.256-0.098-0.354,0c-0.098,0.098-0.098,0.256,0,0.354l0.078,0.078l-0.959,0.959   c-0.187-0.041-0.386-0.07-0.576-0.108c0.004-0.069-0.014-0.138-0.067-0.191l-0.553-0.553l1.961-1.961   c0.098-0.098,0.098-0.256,0-0.354c-0.098-0.098-0.256-0.098-0.354,0l-1.961,1.961l-0.099-0.099c-0.098-0.098-0.256-0.098-0.354,0   c-0.098,0.098-0.098,0.256,0,0.354l0.099,0.099l-0.436,0.436c-0.323-0.045-0.661-0.073-0.993-0.109   c0.069-0.098,0.072-0.229-0.016-0.316l-0.224-0.224l1.867-1.866c0.098-0.098,0.098-0.256,0-0.354c-0.098-0.098-0.256-0.098-0.353,0   l-1.867,1.866l-0.523-0.523c-0.098-0.098-0.256-0.098-0.354,0c-0.098,0.098-0.098,0.256,0,0.354l0.523,0.523l-0.404,0.404   c-0.375-0.026-0.77-0.032-1.156-0.048c-0.009-0.048-0.018-0.097-0.055-0.133l-0.053-0.053l1.59-1.59   c0.098-0.098,0.098-0.256,0-0.354c-0.098-0.098-0.256-0.098-0.354,0l-1.59,1.59l-0.65-0.65c-0.098-0.098-0.256-0.098-0.354,0   c-0.098,0.098-0.098,0.256,0,0.354l0.65,0.65l-0.146,0.146c-0.102-0.002-0.196-0.011-0.299-0.012   c-0.166-0.002-0.331-0.002-0.496-0.002c-0.132,0-0.264,0.008-0.396,0.009c-0.008-0.012-0.005-0.028-0.016-0.038l-0.272-0.272   l2.059-2.059c0.098-0.098,0.098-0.256,0-0.353c-0.098-0.098-0.256-0.098-0.353,0l-2.059,2.059l-0.481-0.481   c-0.098-0.098-0.256-0.098-0.354,0c-0.098,0.098-0.098,0.256,0,0.354l0.481,0.481l-0.341,0.341   c-0.279,0.007-0.558,0.009-0.836,0.019V20.466C30.742,20.445,37.142,18.928,43.266,14.568z M19.124,20.338   c-0.005,0.07,0.012,0.141,0.066,0.195l0.009,0.009l-0.813,0.814c-0.028,0.028-0.029,0.065-0.041,0.1l-1.277-1.277   C17.676,20.236,17.783,20.251,19.124,20.338z M12.554,19.838l0.209,0.208l-0.667,0.667l-0.879-0.88   C11.661,19.819,12.107,19.827,12.554,19.838z M10.301,19.91l-1.577,1.577L7.648,20.41C8.774,20.051,9.405,19.991,10.301,19.91z    M5.623,21.321l0.396,0.396l-1.75,1.75l-0.541-0.542C4.235,22.307,4.878,21.77,5.623,21.321z"/><path d="M59.268,17.197c0.215-0.173,0.25-0.487,0.077-0.702c-0.173-0.216-0.488-0.251-0.703-0.077   c-2.482,1.992-4.635,4.347-6.397,6.998c-0.153,0.229-0.09,0.54,0.14,0.692c0.085,0.057,0.181,0.084,0.276,0.084   c0.162,0,0.321-0.078,0.417-0.224C54.783,21.404,56.866,19.125,59.268,17.197z"/><path d="M64.513,27.709l-8.904,0.33c-0.276,0.011-0.491,0.242-0.481,0.518c0.01,0.27,0.231,0.482,0.499,0.482   c0.006,0,0.013,0,0.019,0l8.904-0.33c0.276-0.011,0.491-0.242,0.481-0.519C65.021,27.915,64.79,27.708,64.513,27.709z"/><path d="M60.19,41.555c0.098,0.097,0.225,0.146,0.353,0.146c0.128,0,0.257-0.049,0.355-0.147c0.194-0.196,0.193-0.513-0.002-0.707   l-6.232-6.189c-0.196-0.193-0.512-0.194-0.707,0.002c-0.195,0.196-0.194,0.513,0.002,0.707L60.19,41.555z"/><path d="M25.746,23.295c0.562,0.055,1.128,0.075,1.694,0.082c0.056,0.301,0.12,0.6,0.209,0.892   c0.042,0.139,0.189,0.207,0.312,0.167c0.132-0.04,0.207-0.18,0.167-0.312c-0.074-0.244-0.125-0.495-0.174-0.745   c0.64-0.008,1.28-0.052,1.919-0.119c0.061,0.288,0.126,0.575,0.203,0.858c0.036,0.132,0.17,0.212,0.307,0.176   c0.133-0.036,0.212-0.173,0.176-0.307c-0.07-0.259-0.128-0.522-0.185-0.785c0.605-0.078,1.208-0.178,1.805-0.308   c0.208,0.483,0.408,1.177,0.891,1.303c0.146,0.034,0.272-0.053,0.305-0.179c0.035-0.134-0.045-0.271-0.179-0.306   c-0.19-0.049-0.44-0.745-0.523-0.936c0.645-0.157,1.279-0.348,1.906-0.564c0.189,0.347,0.415,0.674,0.677,0.967   c0.091,0.101,0.247,0.112,0.353,0.02c0.102-0.093,0.111-0.251,0.019-0.354c-0.218-0.244-0.41-0.513-0.572-0.799   c0.489-0.182,0.971-0.381,1.445-0.598c0.159,0.402,0.413,0.766,0.757,1.036c0.11,0.086,0.266,0.066,0.351-0.042   c0.085-0.108,0.066-0.266-0.042-0.351c-0.277-0.218-0.486-0.52-0.612-0.852c0.396-0.193,0.785-0.397,1.167-0.614   c0.052,0.177,0.091,0.359,0.1,0.545c0.006,0.134,0.117,0.238,0.25,0.238c0.003,0,0.007,0,0.011,0   c0.138-0.007,0.245-0.123,0.238-0.262c-0.012-0.27-0.071-0.535-0.159-0.789c0.328-0.198,0.657-0.396,0.972-0.612   c0.114-0.078,0.143-0.233,0.065-0.348c-0.078-0.113-0.233-0.141-0.348-0.064c-0.29,0.199-0.596,0.374-0.897,0.557   c-0.083-0.147-0.177-0.289-0.286-0.419c-0.089-0.107-0.247-0.12-0.352-0.031c-0.106,0.089-0.12,0.246-0.031,0.352   c0.094,0.112,0.173,0.235,0.244,0.363c-0.363,0.208-0.737,0.396-1.113,0.582c-0.03-0.118-0.135-0.201-0.259-0.192   c-0.137,0.016-0.236,0.139-0.222,0.276c0.005,0.049,0.022,0.095,0.03,0.143c-0.494,0.229-0.998,0.434-1.509,0.623   c-0.067-0.155-0.15-0.303-0.2-0.465c-0.041-0.132-0.179-0.203-0.313-0.166c-0.132,0.041-0.206,0.181-0.166,0.313   c0.052,0.17,0.114,0.336,0.184,0.5c-0.62,0.212-1.252,0.389-1.89,0.541l-0.225-0.522c-0.055-0.127-0.204-0.184-0.329-0.131   c-0.127,0.055-0.185,0.202-0.13,0.328l0.186,0.431c-0.562,0.12-1.127,0.216-1.697,0.289c-0.043-0.236-0.087-0.471-0.119-0.707   c-0.019-0.138-0.145-0.227-0.281-0.215c-0.137,0.018-0.232,0.145-0.214,0.281c0.032,0.234,0.076,0.468,0.118,0.702   c-0.634,0.065-1.269,0.104-1.905,0.11c-0.031-0.236-0.063-0.472-0.072-0.71c-0.005-0.138-0.108-0.244-0.259-0.24   c-0.138,0.006-0.246,0.121-0.241,0.26c0.009,0.233,0.042,0.462,0.071,0.693c-0.527-0.009-1.053-0.031-1.576-0.083   c-0.133-0.011-0.26,0.088-0.273,0.225C25.508,23.159,25.608,23.281,25.746,23.295z"/><path d="M14.028,45.495c0.024,0.008,0.05,0.012,0.074,0.012c0.106,0,0.206-0.068,0.239-0.176c0.041-0.132-0.033-0.271-0.165-0.313   c-0.314-0.099-0.64-0.155-0.967-0.171l0.048-1.077l0.557,0.034c0.005,0,0.01,0,0.015,0c0.131,0,0.241-0.103,0.25-0.234   c0.008-0.138-0.096-0.257-0.234-0.266L13.28,43.27l0.059-1.33c0.006-0.138-0.101-0.254-0.238-0.261   c-0.167-0.002-0.255,0.101-0.261,0.239l-0.059,1.32l-0.561-0.034c-0.133-0.006-0.256,0.098-0.265,0.234   c-0.008,0.138,0.096,0.257,0.234,0.266l0.569,0.035l-0.05,1.118c-0.14,0.012-0.279,0.028-0.416,0.055   c-0.333,0.063-0.218,0.566,0.095,0.49c0.098-0.019,0.199-0.01,0.298-0.02l-0.062,1.392c-0.071,0.005-0.142,0-0.212,0.009   c-0.137,0.017-0.235,0.141-0.218,0.278c0.016,0.138,0.141,0.229,0.278,0.218c0.043-0.005,0.087-0.001,0.13-0.005l-0.071,1.584   l-0.489-0.002c0,0,0,0,0,0c-0.138,0-0.25,0.111-0.25,0.249s0.111,0.25,0.249,0.251l0.469,0.001l-0.052,1.171   c-0.006,0.138,0.101,0.254,0.238,0.261c0.004,0,0.008,0,0.011,0c0.133,0,0.244-0.104,0.25-0.239l0.053-1.191l1.021,0.004   c0,0,0.001,0,0.001,0c0.138,0,0.25-0.111,0.25-0.249c0.001-0.139-0.111-0.251-0.249-0.251l-1-0.003l0.072-1.599   c0.186,0.009,0.373,0.029,0.557,0.067c0.017,0.003,0.033,0.005,0.05,0.005c0.116,0,0.221-0.082,0.245-0.2   c0.027-0.136-0.061-0.267-0.196-0.295c-0.21-0.042-0.421-0.066-0.634-0.076l0.063-1.411C13.472,45.363,13.755,45.41,14.028,45.495z   "/></g><text x="0" y="81" fill="#000000" font-size="5px" font-weight="bold" font-family="'Helvetica Neue', Helvetica, Arial-Unicode, Arial, Sans-serif">Created by Creative Stall</text><text x="0" y="86" fill="#000000" font-size="5px" font-weight="bold" font-family="'Helvetica Neue', Helvetica, Arial-Unicode, Arial, Sans-serif">from the Noun Project</text></svg>